HIERARCHY
ROOT Hips
{
	OFFSET 0.000000 0.000000 0.000000 
	CHANNELS 6 Xposition Yposition Zposition Zrotation Yrotation Xrotation
	JOINT LeftUpLeg
	{
		OFFSET 1.363060 -1.794630 0.839290 
		CHANNELS 3 Zrotation Yrotation Xrotation
		JOINT LeftLeg
		{
			OFFSET 2.448110 -6.726130 0.000000 
			CHANNELS 3 Zrotation Yrotation Xrotation
			JOINT LeftFoot
			{
				OFFSET 2.562200 -7.039590 0.000000 
				CHANNELS 3 Zrotation Yrotation Xrotation
				JOINT LeftToeBase
				{
					OFFSET 0.157640 -0.433110 2.322550 
					CHANNELS 3 Zrotation Yrotation Xrotation
					End Site
					{
						OFFSET 0.000000 0.000000 0.000000 
					}
				}
			}
		}
	}
	JOINT RightUpLeg
	{
		OFFSET -1.305520 -1.794630 0.839290 
		CHANNELS 3 Zrotation Yrotation Xrotation
		JOINT RightLeg
		{
			OFFSET -2.542530 -6.985550 0.000000 
			CHANNELS 3 Zrotation Yrotation Xrotation
			JOINT RightFoot
			{
				OFFSET -2.568260 -7.056230 0.000000 
				CHANNELS 3 Zrotation Yrotation Xrotation
				JOINT RightToeBase
				{
					OFFSET -0.164730 -0.452590 2.363150 
					CHANNELS 3 Zrotation Yrotation Xrotation
					End Site
					{
						OFFSET 0.000000 0.000000 0.000000 
					}
				}
			}
		}
	}
	JOINT Spine
	{
		OFFSET 0.028270 2.035590 -0.193380 
		CHANNELS 3 Zrotation Yrotation Xrotation
		JOINT Spine1
		{
			OFFSET 0.056720 2.048850 -0.042750 
			CHANNELS 3 Zrotation Yrotation Xrotation
			JOINT Neck1
			{
				OFFSET -0.054170 1.746240 0.172020 
				CHANNELS 3 Zrotation Yrotation Xrotation
				JOINT Head
				{
					OFFSET 0.104070 1.761360 -0.123970 
					CHANNELS 3 Zrotation Yrotation Xrotation
					End Site
					{
						OFFSET 0.000000 0.000000 0.000000 
					}
				}
			}
			JOINT LeftArm
			{
				OFFSET 3.362410 1.200890 -0.311210 
				CHANNELS 3 Zrotation Yrotation Xrotation
				JOINT LeftForeArm
				{
					OFFSET 4.983000 -0.000000 -0.000000 
					CHANNELS 3 Zrotation Yrotation Xrotation
					JOINT LeftHand
					{
						OFFSET 3.483560 -0.000000 -0.000000 
						CHANNELS 3 Zrotation Yrotation Xrotation
						JOINT LeftHandIndex1
						{
							OFFSET 0.715260 -0.000000 -0.000000 
							CHANNELS 3 Zrotation Yrotation Xrotation
							End Site
							{
								OFFSET 0.000000 0.000000 0.000000 
							}
						}
					}
				}
			}
			JOINT RightArm
			{
				OFFSET -3.136600 1.374050 -0.404650 
				CHANNELS 3 Zrotation Yrotation Xrotation
				JOINT RightForeArm
				{
					OFFSET -5.241900 -0.000000 -0.000000 
					CHANNELS 3 Zrotation Yrotation Xrotation
					JOINT RightHand
					{
						OFFSET -3.444170 -0.000000 -0.000000 
						CHANNELS 3 Zrotation Yrotation Xrotation
						JOINT RightHandIndex1
						{
							OFFSET -0.622530 -0.000000 -0.000000 
							CHANNELS 3 Zrotation Yrotation Xrotation
							End Site
							{
								OFFSET 0.000000 0.000000 0.000000 
							}
						}
					}
				}
			}
		}
	}
}
MOTION
Frames: 13
Frame Time: 0.041667
4.880774 17.841183 -27.205217 2.113303 25.064037 4.732619 -17.656014 -34.485539 -2.406384 2.317074 9.565001 28.729196 6.036996 -7.929797 -41.701705 0.070600 -1.714700 -4.717900 20.698371 9.931694 -6.785171 -2.854834 -9.978571 30.003491 -3.867370 14.205062 -29.076994 -0.594100 4.934400 -13.721700 -6.964077 -1.385431 1.752559 0.622853 -0.520595 -3.022492 4.274153 0.274394 28.851293 -0.944800 1.823000 15.890800 -91.274359 -4.481666 32.672148 21.634830 -22.026127 -4.981450 -0.643023 -1.114491 -20.496895 -7.125000 0.000000 0.000000 95.703219 -2.340342 -24.864393 -16.506649 17.332694 -3.487907 3.156385 0.179607 -9.154941 7.125000 0.000000 0.000000 
4.880774 17.841377 -27.208712 2.120939 24.983725 4.705565 -17.666966 -34.396584 -2.413431 2.311989 9.559278 28.707891 6.038107 -7.927089 -41.708301 0.069400 -1.699200 -4.675100 20.673064 9.907125 -6.766073 -2.855018 -9.979954 30.005393 -3.856272 14.314412 -28.981706 -0.586800 4.904500 -13.636400 -6.973903 -1.425921 1.793659 0.651285 -0.541575 -2.983115 4.289492 0.229430 28.867395 -0.942300 1.805400 15.896100 -91.198068 -4.481390 32.828290 21.570921 -21.944041 -4.949210 -0.635396 -1.109182 -20.498462 -7.125000 0.000000 0.000000 95.637270 -2.282561 -24.885902 -16.458169 17.275939 -3.474436 3.159131 0.165885 -9.051560 7.125000 0.000000 0.000000 
4.874948 17.837688 -27.206187 2.180233 24.967466 4.619190 -17.758064 -34.336356 -2.282755 2.304489 9.553601 28.680050 6.036956 -7.910002 -41.716287 0.073400 -1.748300 -4.810700 20.718187 10.109859 -6.526090 -2.863039 -9.989174 30.032038 -3.914702 14.296563 -29.324687 -0.586100 4.901900 -13.628900 -7.045318 -1.450630 1.921460 0.745267 -0.555119 -2.908892 4.332958 0.093819 28.874672 -0.945000 1.759100 15.900200 -91.048841 -4.483134 33.125276 21.484988 -21.833082 -4.907903 -0.628791 -1.100589 -20.472434 -7.125000 0.000000 0.000000 95.677606 -2.195533 -25.084307 -16.393986 17.210555 -3.456624 3.164568 0.146242 -8.886840 7.125000 0.000000 0.000000 
4.870385 17.836522 -27.207644 2.263464 24.950885 4.593925 -17.853698 -34.303172 -2.217056 2.296764 9.543625 28.648979 6.024469 -7.817397 -41.701152 0.073800 -1.752500 -4.822200 20.661822 10.090364 -6.472036 -2.868504 -9.998146 30.055275 -3.928281 14.389251 -29.377186 -0.594900 4.937700 -13.731000 -7.094800 -1.509838 1.977876 0.829232 -0.582951 -2.885803 4.366728 -0.009640 28.900425 -0.938600 1.718000 15.912800 -90.951418 -4.471319 33.384350 21.330978 -21.649016 -4.842652 -0.677903 -1.103986 -20.142352 -7.125000 0.000000 0.000000 95.672207 -2.140462 -25.205684 -16.340113 17.152449 -3.440460 3.165643 0.126978 -8.729966 7.125000 0.000000 0.000000 
4.871356 17.838173 -27.215703 2.268115 24.831529 4.579091 -17.848809 -34.187441 -2.253452 2.288219 9.533158 28.608417 6.028612 -7.878597 -41.697256 0.069600 -1.701600 -4.681600 20.590727 9.985188 -6.570124 -2.874304 -10.009782 30.094389 -3.876708 14.522080 -29.045713 -0.606700 4.985500 -13.867200 -7.103829 -1.529735 2.023661 0.826570 -0.595482 -2.878300 4.433381 -0.075968 28.898554 -0.904800 1.687400 15.914300 -90.901217 -4.485501 33.573807 21.187507 -21.469715 -4.775391 -0.695810 -1.106135 -19.956504 -7.125000 0.000000 0.000000 95.649636 -2.116189 -25.149875 -16.336430 17.147753 -3.442528 3.171699 0.131701 -8.789434 7.125000 0.000000 0.000000 
4.872715 17.839144 -27.223762 2.313715 24.733590 4.586335 -17.891334 -34.102711 -2.278639 2.281529 9.524757 28.577155 6.028013 -7.900678 -41.688935 0.066200 -1.660500 -4.568400 20.490203 9.897604 -6.658009 -2.883096 -10.024787 30.143476 -3.853879 14.602564 -28.892077 -0.611300 5.004100 -13.920100 -7.196880 -1.525776 2.041667 0.791541 -0.593128 -2.885035 4.465994 -0.224201 28.896141 -0.910200 1.628000 15.907700 -90.803821 -4.481122 33.786217 20.999867 -21.232645 -4.684132 -0.703454 -1.102102 -19.785483 -7.125000 0.000000 0.000000 95.675813 -2.093355 -25.231148 -16.324016 17.132892 -3.431278 3.160691 0.123968 -8.809594 7.125000 0.000000 0.000000 
4.873686 17.838756 -27.231336 2.401538 24.566172 4.568700 -17.988642 -33.939758 -2.275939 2.272246 9.514968 28.536979 6.028697 -7.926109 -41.687749 0.064000 -1.631900 -4.489500 20.329302 9.736876 -6.765498 -2.895675 -10.047547 30.217198 -3.805633 14.732834 -28.579178 -0.615300 5.020200 -13.966200 -7.312798 -1.508916 2.143404 0.770642 -0.586971 -2.856328 4.480884 -0.360962 28.847046 -0.927300 1.571100 15.886000 -90.685048 -4.509053 33.976605 20.819125 -21.003891 -4.597129 -0.715551 -1.099752 -19.614308 -7.125000 0.000000 0.000000 95.739799 -2.044995 -25.190994 -16.352635 17.166850 -3.441137 3.162954 0.134109 -8.932764 7.125000 0.000000 0.000000 
4.860287 17.833609 -27.225413 2.473612 24.610399 4.402663 -18.126330 -33.909342 -2.030031 2.263668 9.510648 28.510442 6.021758 -7.856347 -41.694689 0.069300 -1.698200 -4.672300 20.448436 10.031827 -6.400548 -2.917098 -10.074706 30.304491 -3.892771 14.622168 -29.118340 -0.615300 5.020400 -13.966900 -7.293321 -1.575052 2.348916 0.955006 -0.624468 -2.801862 4.523747 -0.454247 28.821199 -0.912000 1.528700 15.879700 -90.604267 -4.542814 33.925686 20.598100 -20.709237 -4.479037 -0.708838 -1.086521 -19.464115 -7.125000 0.000000 0.000000 95.759366 -2.025271 -25.097168 -16.365689 17.180077 -3.444049 3.158567 0.136041 -9.023462 7.125000 0.000000 0.000000 
4.858345 17.832639 -27.232112 2.580287 24.518213 4.410667 -18.224622 -33.822087 -2.018170 2.256035 9.501196 28.469382 6.028547 -7.994697 -41.677019 0.058700 -1.562800 -4.298700 20.322945 9.986464 -6.475522 -2.936338 -10.104634 30.404776 -3.878288 14.622419 -29.036737 -0.622300 5.048400 -14.046600 -7.457859 -1.599412 2.419847 0.917785 -0.636754 -2.788908 4.554608 -0.584103 28.760599 -0.926100 1.479700 15.847100 -90.468341 -4.540554 33.978015 20.388364 -20.444536 -4.377824 -0.726012 -1.089822 -19.145543 -7.125000 0.000000 0.000000 95.825570 -1.978336 -25.104150 -16.353450 17.164400 -3.438103 3.157640 0.130882 -8.992318 7.125000 0.000000 0.000000 
4.854364 17.832056 -27.235025 2.642368 24.390355 4.366318 -18.286102 -33.682496 -1.992794 2.246633 9.491876 28.434622 6.021011 -7.906502 -41.682470 0.062300 -1.611100 -4.432000 20.248271 9.909146 -6.518565 -2.954594 -10.133065 30.500619 -3.854365 14.681052 -28.886248 -0.632000 5.086600 -14.155700 -7.563107 -1.602457 2.527692 0.906103 -0.641155 -2.762548 4.629295 -0.702578 28.730365 -0.907500 1.435100 15.839200 -90.356966 -4.535548 33.922914 20.155040 -20.144628 -4.262690 -0.738504 -1.076781 -18.722021 -7.125000 0.000000 0.000000 95.819604 -1.897322 -25.038618 -16.325853 17.123594 -3.424329 3.148402 0.113334 -8.994335 7.125000 0.000000 0.000000 
4.852810 17.831765 -27.241531 2.730463 24.223308 4.399343 -18.337914 -33.527208 -2.048651 2.236953 9.478673 28.385990 6.023063 -7.989468 -41.662574 0.060000 -1.580800 -4.348400 20.129692 9.955552 -6.600695 -2.974940 -10.164621 30.604343 -3.843520 14.752877 -28.806380 -0.627000 5.066900 -14.099400 -7.640227 -1.588849 2.587961 0.901278 -0.635651 -2.738713 4.683558 -0.822433 28.670794 -0.897800 1.383400 15.803600 -90.315343 -4.548368 33.655298 19.924991 -19.837974 -4.140172 -0.730185 -1.071972 -18.427662 -7.125000 0.000000 0.000000 95.831750 -1.885186 -24.866880 -16.360530 17.156823 -3.434876 3.147122 0.122886 -9.169182 7.125000 0.000000 0.000000 
4.852422 17.831376 -27.247648 2.831596 24.007281 4.407598 -18.418717 -33.325920 -2.092808 2.226501 9.467217 28.339511 6.024369 -8.023411 -41.661273 0.056500 -1.533500 -4.218000 19.967659 9.896737 -6.710882 -2.992716 -10.192977 30.699989 -3.806748 14.845378 -28.570491 -0.631900 5.086400 -14.155100 -7.815306 -1.548393 2.660623 0.828189 -0.617337 -2.727874 4.781341 -1.000147 28.646399 -0.878200 1.318600 15.791000 -90.207869 -4.533845 33.473740 19.684108 -19.529404 -4.024105 -0.750069 -1.067238 -18.002216 -7.125000 0.000000 0.000000 95.912819 -1.857169 -24.784537 -16.386749 17.182376 -3.439638 3.141116 0.121752 -9.216342 7.125000 0.000000 0.000000 
4.837760 17.825356 -27.238521 2.968493 24.009022 4.261886 -18.599294 -33.245512 -1.834454 2.212437 9.456234 28.287545 6.015753 -7.968042 -41.658297 0.061600 -1.600900 -4.404000 20.043907 10.243885 -6.331706 -3.017966 -10.223709 30.800245 -3.921292 14.651662 -29.286679 -0.643500 5.131800 -14.284700 -7.892382 -1.572873 2.887552 0.981048 -0.634808 -2.663740 4.874927 -1.172883 28.611903 -0.856000 1.253300 15.781600 -90.107313 -4.532888 33.251118 19.459558 -19.223266 -3.904543 -0.728380 -1.052586 -17.621336 -7.125000 0.000000 0.000000 95.989293 -1.811712 -24.775729 -16.417682 17.222289 -3.449532 3.136062 0.118932 -9.341622 7.125000 0.000000 0.000000 
